<?xml version="1.0" encoding="UTF-8" standalone="no"?>
<!-- Created with Inkscape (http://www.inkscape.org/) -->

<svg
   width="250"
   height="250"
   viewBox="0 0 66.145832 66.145833"
   version="1.1"
   id="svg5"
   inkscape:version="1.2.2 (732a01da63, 2022-12-09)"
   sodipodi:docname="db.svg"
   xmlns:inkscape="http://www.inkscape.org/namespaces/inkscape"
   xmlns:sodipodi="http://sodipodi.sourceforge.net/DTD/sodipodi-0.dtd"
   xmlns="http://www.w3.org/2000/svg"
   xmlns:svg="http://www.w3.org/2000/svg">
  <sodipodi:namedview
     id="namedview7"
     pagecolor="#f1d8a1"
     bordercolor="#000000"
     borderopacity="0.25"
     inkscape:showpageshadow="2"
     inkscape:pageopacity="0"
     inkscape:pagecheckerboard="0"
     inkscape:deskcolor="#d1d1d1"
     inkscape:document-units="px"
     showgrid="false"
     inkscape:zoom="2.8284271"
     inkscape:cx="162.98811"
     inkscape:cy="142.48202"
     inkscape:window-width="1920"
     inkscape:window-height="1057"
     inkscape:window-x="1912"
     inkscape:window-y="-8"
     inkscape:window-maximized="1"
     inkscape:current-layer="layer1" />
  <defs
     id="defs2" />
  <g
     inkscape:label="Capa 1"
     inkscape:groupmode="layer"
     id="layer1">
    <g
       id="g2037"
       transform="translate(0,-0.26458394)">
      <ellipse
         style="fill:#ffffff;stroke-width:2.67714"
         id="path184"
         cx="33.072899"
         cy="8.7311554"
         rx="26.111217"
         ry="6.614583" />
      <path
         id="rect1027"
         style="fill:#ffffff;fill-opacity:1;stroke-width:4.10925"
         d="m 6.9616997,11.901575 v 0.0047 a 26.111218,6.614583 0 0 1 6.803e-4,-0.0047 z m 0,0.0047 V 25.130791 H 6.96238 a 26.111218,6.614583 0 0 0 -6.803e-4,0.0047 26.111218,6.614583 0 0 0 26.1112183,6.614583 26.111218,6.614583 0 0 0 26.111217,-6.614583 26.111218,6.614583 0 0 0 0,-5.17e-4 26.111218,6.614583 0 0 0 0,-5.17e-4 26.111218,6.614583 0 0 0 0,-5.16e-4 26.111218,6.614583 0 0 0 0,-5.17e-4 26.111218,6.614583 0 0 0 0,-5.17e-4 26.111218,6.614583 0 0 0 0,-5.17e-4 26.111218,6.614583 0 0 0 0,-5.16e-4 26.111218,6.614583 0 0 0 0,-5.17e-4 26.111218,6.614583 0 0 0 0,-5.17e-4 V 11.906225 A 26.111218,6.614583 0 0 1 33.072918,18.520809 26.111218,6.614583 0 0 1 6.9616997,11.906225 Z" />
      <path
         id="path1035"
         style="fill:#ffffff;fill-opacity:1;stroke-width:4.10925"
         d="m 6.9616997,28.305752 v 0.0047 a 26.111218,6.614583 0 0 1 6.803e-4,-0.0047 z m 0,0.0047 V 41.534968 H 6.96238 a 26.111218,6.614583 0 0 0 -6.803e-4,0.0047 26.111218,6.614583 0 0 0 26.1112183,6.614583 26.111218,6.614583 0 0 0 26.111217,-6.614583 26.111218,6.614583 0 0 0 0,-5.17e-4 26.111218,6.614583 0 0 0 0,-5.17e-4 26.111218,6.614583 0 0 0 0,-5.16e-4 26.111218,6.614583 0 0 0 0,-5.17e-4 26.111218,6.614583 0 0 0 0,-5.17e-4 26.111218,6.614583 0 0 0 0,-5.17e-4 26.111218,6.614583 0 0 0 0,-5.16e-4 26.111218,6.614583 0 0 0 0,-5.17e-4 26.111218,6.614583 0 0 0 0,-5.17e-4 V 28.310402 A 26.111218,6.614583 0 0 1 33.072918,34.924986 26.111218,6.614583 0 0 1 6.9616997,28.310402 Z" />
      <path
         id="path1037"
         style="fill:#ffffff;fill-opacity:1;stroke-width:4.10925"
         d="m 6.9616997,44.709929 v 0.0047 a 26.111218,6.614583 0 0 1 6.803e-4,-0.0047 z m 0,0.0047 V 57.939145 H 6.96238 a 26.111218,6.614583 0 0 0 -6.803e-4,0.0047 26.111218,6.614583 0 0 0 26.1112183,6.614583 26.111218,6.614583 0 0 0 26.111217,-6.614583 26.111218,6.614583 0 0 0 0,-5.17e-4 26.111218,6.614583 0 0 0 0,-5.17e-4 26.111218,6.614583 0 0 0 0,-5.16e-4 26.111218,6.614583 0 0 0 0,-5.17e-4 26.111218,6.614583 0 0 0 0,-5.17e-4 26.111218,6.614583 0 0 0 0,-5.17e-4 26.111218,6.614583 0 0 0 0,-5.16e-4 26.111218,6.614583 0 0 0 0,-5.17e-4 26.111218,6.614583 0 0 0 0,-5.17e-4 V 44.714579 A 26.111218,6.614583 0 0 1 33.072918,51.329163 26.111218,6.614583 0 0 1 6.9616997,44.714579 Z" />
    </g>
  </g>
</svg>
