<?xml version="1.0" encoding="UTF-8" standalone="no"?>
<!-- Created with Inkscape (http://www.inkscape.org/) -->

<svg
   width="250"
   height="250"
   viewBox="0 0 66.145832 66.145833"
   version="1.1"
   id="svg1"
   inkscape:version="1.4.2 (ebf0e940d0, 2025-05-08)"
   sodipodi:docname="logout.svg"
   xmlns:inkscape="http://www.inkscape.org/namespaces/inkscape"
   xmlns:sodipodi="http://sodipodi.sourceforge.net/DTD/sodipodi-0.dtd"
   xmlns="http://www.w3.org/2000/svg"
   xmlns:svg="http://www.w3.org/2000/svg">
  <sodipodi:namedview
     id="namedview1"
     pagecolor="#ecbe53"
     bordercolor="#000000"
     borderopacity="0.25"
     inkscape:showpageshadow="2"
     inkscape:pageopacity="0.0"
     inkscape:pagecheckerboard="0"
     inkscape:deskcolor="#d1d1d1"
     inkscape:document-units="px"
     inkscape:zoom="3.0039562"
     inkscape:cx="116.18012"
     inkscape:cy="121.33998"
     inkscape:window-width="1920"
     inkscape:window-height="1052"
     inkscape:window-x="0"
     inkscape:window-y="0"
     inkscape:window-maximized="1"
     inkscape:current-layer="layer1"
     showguides="true" />
  <defs
     id="defs1" />
  <g
     inkscape:label="Capa 1"
     inkscape:groupmode="layer"
     id="layer1">
    <path
       id="rect1"
       style="fill:#ffffff;fill-opacity:1;stroke-width:0.264583"
       d="M 21.974886 9.6882974 C 19.827889 9.6882974 18.09967 11.416517 18.09967 13.563513 L 18.09967 22.679752 L 22.328353 22.679752 L 22.328353 13.915946 L 43.818513 13.915946 L 43.818513 52.228336 L 22.328353 52.228336 L 22.328353 43.46608 L 18.09967 43.46608 L 18.09967 52.582319 C 18.09967 54.729316 19.827889 56.457535 21.974886 56.457535 L 44.170947 56.457535 C 46.317943 56.457535 48.046162 54.729316 48.046162 52.582319 L 48.046162 13.563513 C 48.046162 11.416517 46.317943 9.6882974 44.170947 9.6882974 L 21.974886 9.6882974 z " />
    <g
       id="g5"
       transform="translate(-2.6545305,-1.1944225)">
      <g
         id="g4">
        <rect
           style="fill:#ffffff;fill-opacity:1;stroke-width:0.137413"
           id="rect2"
           width="14.444839"
           height="4.4039145"
           x="-21.671556"
           y="26.571753"
           ry="2.2019572"
           transform="rotate(-45)" />
        <rect
           style="fill:#ffffff;fill-opacity:1;stroke-width:0.137413"
           id="rect3"
           width="14.444839"
           height="4.4039145"
           x="26.789778"
           y="-21.889584"
           ry="2.2019572"
           transform="matrix(0.70710678,0.70710678,0.70710678,-0.70710678,0,0)" />
      </g>
      <rect
         style="fill:#ffffff;fill-opacity:1;stroke-width:0.178907"
         id="rect4"
         width="24.485764"
         height="4.4039145"
         x="5.5524158"
         y="-36.469296"
         ry="2.2019572"
         transform="scale(1,-1)" />
    </g>
  </g>
</svg>
